<svg xmlns="http://www.w3.org/2000/svg" viewBox="0 0 720 845.45"><defs><style>.cls-1{fill:#fce37a;}.cls-2{fill:#f43434;}</style></defs><title>logo</title><g id="Camada_2" data-name="Camada 2"><g id="Camada_1-2" data-name="Camada 1"><path class="cls-1" d="M689.21,538.7h0A356.32,356.32,0,0,0,28,273.11,356.16,356.16,0,0,0,51.36,596.2h0s19.59,34.5,21.38,75.69V691a18.36,18.36,0,0,0,18.36,18.36h0a18.36,18.36,0,0,0,18.15-15.69h0v-.13a19.34,19.34,0,0,0,.19-2.54v-.67a8.49,8.49,0,0,1,3.68-7.09c3.13-2.09,8.17-3.17,15.1,2.35a1.33,1.33,0,0,0,.19.14,352.79,352.79,0,0,0,29.17,21.9h0s13,11.82,13.75,36.61v44.19a24.71,24.71,0,0,0,49.41,0v-8.8s0-27.82,24.22-29.28H245a351.47,351.47,0,0,0,50.68,12.61h0s7.49,1.69,13.57,10a32.35,32.35,0,0,1,6.05,19.23v4.46c0,11,8.48,20.51,19.49,21a20.48,20.48,0,0,0,21.47-20.45v-10.9s.51-16,15.68-18.55l.12,0a356,356,0,0,0,63.86-8.57h0s16.61-1.81,22.4,16a33,33,0,0,1,1.49,10.23v34.16c0,13.57,10.43,25.28,24,25.88A25.13,25.13,0,0,0,510,820.33V768.05s.89-34,18.23-44.2c.13-.07.21-.14.33-.21a355.33,355.33,0,0,0,79.56-59.93q2.46-2.48,4.86-5l.18-.17c5.8-5.76,10.78-4.89,14.32-2.57a12.93,12.93,0,0,1,5.62,10.89v36.65c0,10.68,8.36,19.84,19,20a19.4,19.4,0,0,0,19.76-19.4v-46.8c.07-2.17.07-4.51,0-7V638.25C673.16,588.81,689.21,538.7,689.21,538.7Zm-333-431.79c136.06,0,251.29,89.13,290.52,212.19-6.85,12.13-17.67-1-17.67-1v.12c-32.72-95.08-114.27-170.29-220.18-190C252.31,99.13,101.76,202.51,72.67,359.12q-.67,3.6-1.24,7.19l-17.18,3.46C74.73,221.27,202.12,106.91,356.25,106.91ZM567.38,398.17c6.38-3.57,14.9-6,22.84-.8,12.49,8.19,14.9,19.24,14.58,27.42a6.91,6.91,0,0,1-10.73,5.56l-27.24-18.18A8.21,8.21,0,0,1,567.38,398.17Zm-4.54-19.81a13.09,13.09,0,1,1,13.08-13.09A13.09,13.09,0,0,1,562.84,378.36Zm-34,188.58-24.95,40.74a3.57,3.57,0,0,1-5.57.67c-5.79-5.84-16.09-19.53-5.37-35.19,10.19-14.87,25.47-13.88,33.38-12.1A3.93,3.93,0,0,1,528.86,566.94ZM454.33,635.8a13.13,13.13,0,1,1-10.51-15.3A13.13,13.13,0,0,1,454.33,635.8Zm-66.06-19.19c5.35,7,.52,19-10.85,20.32s-15.92-12.2-18.52-20.77c-1.89-6.24-4.61-6.14-5.94-5.63l-.81.43h0l-7.91,4.26a8.8,8.8,0,0,1-12.89-6.51c-1.58-11.33-.18-28,18.25-36.71,17-8.06,31-2.47,39.84,3.76a9.23,9.23,0,0,1-1,15.67l-8.05,4.33C376.73,599.71,382.92,609.65,388.27,616.61ZM305.16,375.35a10.08,10.08,0,1,1,10.07-10.08A10.08,10.08,0,0,1,305.16,375.35Zm.94,262.88a13.12,13.12,0,1,1-10.5-15.3A13.12,13.12,0,0,1,306.1,638.23ZM197.83,584.85a19.58,19.58,0,1,1,15.68,22.83A19.58,19.58,0,0,1,197.83,584.85Zm-8.58-264a9.3,9.3,0,1,1,9.3,9.29A9.3,9.3,0,0,1,189.25,320.88Zm-11.64,45.48L150.72,385a8.22,8.22,0,0,1-12.83-5.65c-1-7.24-.13-16.06,7.63-21.54,12.21-8.61,23.37-6.81,30.86-3.51A6.91,6.91,0,0,1,177.61,366.36ZM356.25,716.7c-167.48,0-303.39-135-304.86-302.17l16.42,1.65c1.9,134.61,98.33,253.67,235.76,279.2C457.18,723.91,604.94,625,638,473.43l16.53,1.66C625.4,613.1,502.93,716.7,356.25,716.7Z"/><path class="cls-1" d="M65.87,592.92c-3.73,0-7.58-.34-10.45-2.81A8,8,0,0,1,54,588.5c-8.45-12.86-16.68-59.79-4.68-136.33,0-.05,0-.09,0-.14,9.34-53.21,23-86.33,29.75-92.85a8.24,8.24,0,0,1,1.41-1.08,32.21,32.21,0,0,1,5.35-2.55,73.29,73.29,0,0,1,15.25-3.49,56.19,56.19,0,0,1,7.51-.51A52.47,52.47,0,0,1,120.76,353l.56.16a26.58,26.58,0,0,1,8.27,4.15,23.21,23.21,0,0,1,4.74,4.72l1.12,1.62a7.75,7.75,0,0,1-6.39,12.15h-.49l-.86,0a10.19,10.19,0,0,0-3.06.44c-.18.3-.35.61-.52.92,5.13,26.65,9.94,47.52,13.89,63.05q4.39-7.61,9.07-15.05a399.41,399.41,0,0,1,43.14-57.95,316.85,316.85,0,0,1,58.16-50.8c13-14.81,17.58-16.47,19.31-17.09.21-.08.43-.15.65-.21a43.15,43.15,0,0,1,6.4-1.15,45.63,45.63,0,0,1,4.67-.23,77.35,77.35,0,0,1,11.09.91A56.4,56.4,0,0,1,309.42,305l.16.09a24.85,24.85,0,0,1,8,7,23.14,23.14,0,0,1,3.44,6.68l.53,1.82a7.75,7.75,0,0,1-7.45,9.92,7.43,7.43,0,0,1-2.18-.32,15.86,15.86,0,0,0-4.42-.68c-.29,0-.58,0-.86,0a5.77,5.77,0,0,0-.88.12c-32,29.74-56.26,64.4-72.09,103-16,40.66-19.9,70.5-20.37,88.35-.19,10.46,1,19.4,3.45,25.76a24.36,24.36,0,0,0,1.86,3.83,8.14,8.14,0,0,1,.64,1.33c2,5.25-1.26,10.47-4.57,15a10.93,10.93,0,0,1-5.62,4.29,16.64,16.64,0,0,1-5.36.78,41.74,41.74,0,0,1-7.16-.74,101.14,101.14,0,0,1-14-3.56c-6.43-2.11-9.75-3.89-11.82-6.34a8.25,8.25,0,0,1-.92-1.35l-1.18-2.21-.17-.34c-3.25-6.87-5.15-16.29-5.64-28-.53-15.42.74-36.23,6.86-61.75q-4.54,10-8.36,20.42a171.39,171.39,0,0,0-7.2,27.81c-2.55,14.32-3.07,17.29-7.59,19.23a8.85,8.85,0,0,1-3.52.71c-2.65,0-5.63-.86-15.41-5.75-9-4.49-14.63-9-17.58-14.13-.12-.21-.23-.43-.33-.64-1.27-2.79-6.83-21.11-13.91-54.31A279.17,279.17,0,0,0,92.44,502a407.7,407.7,0,0,0,6.19,73.93c0,.1,0,.21.05.31a18.58,18.58,0,0,1-.26,8,7.92,7.92,0,0,1-3.54,4.84c-2.18,1.4-4.37,1.8-16.73,3A121.64,121.64,0,0,1,65.87,592.92Z"/><path class="cls-1" d="M329,318.46l-.53-1.82a30.81,30.81,0,0,0-4.53-8.95,32.66,32.66,0,0,0-10.51-9.29l-.32-.18a64.1,64.1,0,0,0-21.5-7.33,84.47,84.47,0,0,0-12.23-1,52.92,52.92,0,0,0-5.48.27,49.9,49.9,0,0,0-7.59,1.37c-.44.12-.87.25-1.29.41-4,1.44-9.68,4.79-21.85,18.52A325.29,325.29,0,0,0,184.45,362a407.68,407.68,0,0,0-43.34,58c-2.46-10.64-5.14-23-7.93-37a15.51,15.51,0,0,0,8.66-23.75l-1.05-1.52-.15-.2a30.53,30.53,0,0,0-6.29-6.34,34.26,34.26,0,0,0-10.68-5.42c-.37-.12-.74-.22-1.12-.31a60.22,60.22,0,0,0-13.93-1.63,63.33,63.33,0,0,0-8.55.59,80,80,0,0,0-16.93,3.9,40.34,40.34,0,0,0-6.61,3.17,16.05,16.05,0,0,0-2.83,2.16c-9,8.68-22.81,44.81-32,97.08,0,.09,0,.19,0,.28-11.56,73.71-5.06,125.17,5.86,141.79A15.56,15.56,0,0,0,50.36,596c4.82,4.15,10.82,4.69,15.51,4.69,3.24,0,7.4-.28,13.08-.87,12.44-1.23,16.21-1.7,20.17-4.24a15.66,15.66,0,0,0,6.81-9.39,26.81,26.81,0,0,0,.44-11c0-.21-.06-.42-.1-.63a403.66,403.66,0,0,1-6-63.26,71.59,71.59,0,0,0,2.47,7.29q.3.66.66,1.29c3.75,6.53,10.38,12,20.86,17.22,10.16,5.08,14.4,6.55,18.85,6.55a16.58,16.58,0,0,0,6.56-1.33,15.34,15.34,0,0,0,6.07-4.57c1,9.18,2.91,16.9,5.81,23,.11.24.23.47.35.69L163,563.7a15.32,15.32,0,0,0,1.82,2.69c3.57,4.23,8.72,6.54,15.35,8.71q1.67.54,3.3,1a46.92,46.92,0,0,1,5.74-14.48c-1.39-.4-2.79-.81-4.22-1.28-4.5-1.47-7.3-2.77-8.32-4l-1.18-2.21c-2.67-5.64-4.44-13.95-4.91-25-1-29.66,5-73.7,32.61-130a299.13,299.13,0,0,0-49.13,86.33,179.18,179.18,0,0,0-7.57,29.19c-1.54,8.69-2.42,13.15-3,13.4a1.2,1.2,0,0,1-.46.07c-1.53,0-5.46-1.68-11.95-4.92-7.29-3.63-12.13-7.25-14.31-11.06-1.06-2.32-10-31.21-20.44-88.53a283.62,283.62,0,0,0-11.67,78.27A414,414,0,0,0,91,577.26c.33,2.49.3,4.16-.11,5,.05.07,0,.15-.14.24-.85.55-5.27,1.06-13.35,1.86-4.86.5-8.7.79-11.52.79s-4.64-.29-5.38-.93c-6-9.15-15.92-51.61-3.5-130.87,9.64-55,23.35-84.6,27.5-88.62a24.81,24.81,0,0,1,4.08-1.94,65.71,65.71,0,0,1,13.59-3.06,47.31,47.31,0,0,1,6.46-.45A44.63,44.63,0,0,1,119,360.5a19,19,0,0,1,5.87,2.89,16.72,16.72,0,0,1,3.2,3.11l1,1.51c-.45,0-.91-.05-1.35-.05a17.63,17.63,0,0,0-5.61.87,6.2,6.2,0,0,0-3.57,2.38c-.86,1.53-1.71,3.05-2.54,4.58,7.91,41.48,15.16,69.59,19.52,84.9q8.36-15.85,18.15-31.48A390.35,390.35,0,0,1,196,372.29a309.29,309.29,0,0,1,57.54-50.1c8.34-9.55,14.15-14.71,16.79-15.66a33.42,33.42,0,0,1,5.21-.94,38.35,38.35,0,0,1,3.86-.18,69.48,69.48,0,0,1,10,.82,48.36,48.36,0,0,1,16.31,5.59,17.25,17.25,0,0,1,5.59,4.77,15.87,15.87,0,0,1,2.34,4.39c.17.6.35,1.2.52,1.8a23.49,23.49,0,0,0-6.6-1c-.47,0-.94,0-1.4,0a8.92,8.92,0,0,0-5,1.59C267,355,242.36,391.15,226.53,429.78,211,469.45,206.14,500,205.59,520.86c-.21,12,1.22,21.39,3.84,28.38a24.73,24.73,0,0,1,5-.32h3.26a31.18,31.18,0,0,1,9.23,1.41c-.11-.37-.22-.74-.36-1.11a16.58,16.58,0,0,0-1.25-2.58A16.17,16.17,0,0,1,224,544c-1.45-3.78-3.14-10.82-2.94-22.83.47-17.23,4.29-46,19.83-85.66,15-36.64,37.89-69.64,68-98.11.29.06.59.13.9.22a15.25,15.25,0,0,0,4.37.63A15.51,15.51,0,0,0,329,318.46Z"/><path class="cls-2" d="M255.38,524.42a35,35,0,0,1-8.66-1.35,98.6,98.6,0,0,1-12.9-4.4c-4.49-1.85-9.85-4.66-11.46-9.9-3.78-12.4-1.39-29.44,6.9-49.3,8.15-19.43,20.68-37.26,37.24-53,9.08-8.63,22.42-19.15,34.4-20.21,1-.08,2-.13,3-.13,8.71,0,18.68,3.07,29.64,9.13,14.08,7.18,22.06,16.7,23.73,28.29a7.76,7.76,0,0,1-.72,4.52,65.71,65.71,0,0,1-5.11,8.7c.1.16.19.32.28.48a7.76,7.76,0,0,1-.89,8.8c-1.94,2.27-3.66,4.4-5.19,6.38l8.38-6.82c8.81-7.15,16.06-13.35,22.16-19a7.77,7.77,0,0,1,5.25-2.05h.23a22.68,22.68,0,0,1,11.65,4.1c4.39,2.88,7,6,8.07,9.52a7.76,7.76,0,0,1-2.64,8.29c-3.34,2.63-7,5.44-10.82,8.44q-6.54,5.08-14,10.91c-8.87,7-17.66,14.31-26.13,21.74s-15,13.64-19.71,18.21c-2.35,2.28-4.16,4.07-5.44,5.33-2.67,2.63-3,3-4,3.51a10,10,0,0,1-4.17,1.28,12.65,12.65,0,0,1-1.28.06c-2.72,0-6-.75-10.27-2.36a94.13,94.13,0,0,1-12.34-5.75c-3.84-2.12-7.53-4.56-9.25-8.06-2.7,3.14-5.42,6.37-8.19,9.75-3.13,3.83-5.42,6.71-6.93,8.61-2.37,3-2.75,3.46-3.72,4.16a10.27,10.27,0,0,1-4.1,1.81A15.9,15.9,0,0,1,255.38,524.42Zm30-73.74c-1.78,2.73-3.31,5.26-4.64,7.59l7.92-8.2c6.42-6.63,11.86-12.49,16.53-17.81l-.82-.44a10.23,10.23,0,0,0-1.37-.67,61.09,61.09,0,0,0-5,4.21A93.81,93.81,0,0,0,285.35,450.68Z"/><path class="cls-1" d="M303.94,393.87c7.2,0,16,2.68,26,8.22,12.05,6.12,18.42,13.79,19.68,22.54A51.45,51.45,0,0,1,341.41,437a12.91,12.91,0,0,1,3.56,4c-8.77,10.28-14.21,18.84-17,25.44-1.56,3.93-2.24,6.67-2.11,8.21.09,1.05.54,1.6,1.36,1.63,1.09-.23,4.49-2.78,10.5-7.52s13-10.49,21.18-17.13,15.75-13.05,22.53-19.29a15.11,15.11,0,0,1,7.63,2.84c2.78,1.82,4.39,3.58,4.88,5.23-7.11,5.6-15.47,12-24.8,19.35s-18.13,14.7-26.44,22-14.86,13.51-20,18.46-7.65,7.56-7.9,7.7a2.28,2.28,0,0,1-1,.28l-.59,0a23.78,23.78,0,0,1-7.55-1.86,84.07,84.07,0,0,1-11.31-5.28c-3.89-2.14-6-3.87-6.23-5.24-.78-4.59-.22-10.36,1.88-17.3-9.34,10-16.8,18.75-22.83,26.1s-8.93,11.21-9.24,11.43a2.57,2.57,0,0,1-1.06.47,8,8,0,0,1-1.55.13,28.17,28.17,0,0,1-6.71-1.1,89.39,89.39,0,0,1-11.88-4c-4.15-1.72-6.51-3.37-7-5-3-9.82-1.48-24.57,6.64-44,7.51-17.87,19.14-34.89,35.43-50.39,12.14-11.54,22.47-17.46,29.74-18.1.76-.07,1.55-.1,2.36-.1M266,483.32h.17c1-.32,4-3.21,9.29-8.57s11.5-11.8,18.74-19.27,13.87-14.63,19.76-21.53a12.23,12.23,0,0,1,3.88-1.76,42.81,42.81,0,0,0-9.67-7.1,12.37,12.37,0,0,0-6-1.9c-.23,0-.44,0-.66,0-1.21.12-4.19,2.23-8.77,6.42a100.75,100.75,0,0,0-13.86,16.75c-7.23,11.13-11.44,20.21-13.29,27.07-1.13,4-1.49,6.81-1.14,8.41.22,1,.73,1.46,1.54,1.46m37.94-105c-1.26,0-2.51.05-3.72.16-11.41,1-24.55,8.51-39.06,22.31-17.34,16.51-30.48,35.22-39.05,55.62-9.13,21.89-11.54,40.23-7.17,54.56,2.9,9.44,12.36,13.36,15.92,14.83a106.94,106.94,0,0,0,13.91,4.73,42.23,42.23,0,0,0,10.61,1.6,23.85,23.85,0,0,0,4.63-.44,18,18,0,0,0,7.15-3.16c1.81-1.31,2.72-2.46,5.21-5.59,1.5-1.89,3.76-4.74,6.86-8.54l2.48-3a47.68,47.68,0,0,0,5.21,3.2,100.17,100.17,0,0,0,13.36,6.22c5.25,2,9.26,2.85,13,2.85.68,0,1.36,0,2-.09a17.74,17.74,0,0,0,7.32-2.28c1.84-1.06,2.73-1.94,5.55-4.71,1.27-1.26,3.06-3,5.4-5.29,4.64-4.49,11.05-10.59,19.42-18s17-14.55,25.81-21.47c4.91-3.86,9.48-7.42,13.91-10.85,3.86-3,7.51-5.84,10.89-8.5A15.5,15.5,0,0,0,408.85,436c-1.58-5.36-5.26-9.87-11.24-13.8a30.23,30.23,0,0,0-15.69-5.37h-.45A15.46,15.46,0,0,0,371,420.92c-1.86,1.71-3.83,3.47-5.92,5.31a15.69,15.69,0,0,0-.08-3.81c-1.4-9.77-7.37-23.58-27.76-34-12.08-6.66-23.28-10-33.28-10Z"/><path class="cls-2" d="M381.28,513.85l-1.8,0a51.34,51.34,0,0,1-24.57-6.64c-7.74-4.41-17.18-13.64-18-32.48a41.77,41.77,0,0,1,6-23.93c3.07-5.18,7.5-11.23,14.13-11.29,5,0,8.8,3.92,8.86,9.12,0,.18,0,.37,0,.55l-.07,1.17q2.15,1.08,5.24,2.48c1.61.72,3.32,1.41,5.16,2.08a82.16,82.16,0,0,0-1.1-8.41,65.72,65.72,0,0,1-1.37-14.41c0-.11,0-.23,0-.35,1-12.8,4.18-21.64,9.61-27l.14-.13A59.84,59.84,0,0,1,408.18,391c9.23-2.65,17.12-4,23.47-4a38.09,38.09,0,0,1,4,.2,71.81,71.81,0,0,1,22.59,6.7C470.32,399.5,474,407.37,474.94,413a7.19,7.19,0,0,1,.11,1.22,36.76,36.76,0,0,1-.76,7.73c-1.36,6.7-4.53,13.48-9.66,20.68q5.83-3,11.41-6.38a7.78,7.78,0,0,1,4-1.11,7.61,7.61,0,0,1,1.43.13,22.05,22.05,0,0,1,11,6c3.83,3.6,5.86,7.16,6.19,10.88a7.75,7.75,0,0,1-3.95,7.48c-9.48,5.26-22.06,11.16-36.63,18A218.69,218.69,0,0,1,418.61,492a29.5,29.5,0,0,1-7.73,11.71,36.11,36.11,0,0,1-15,8.19A55.27,55.27,0,0,1,381.28,513.85Zm40.34-54,1.53-.48c-.52-.07-1-.14-1.52-.23Z"/><path class="cls-1" d="M431.65,394.72a30.82,30.82,0,0,1,3.15.15,64.67,64.67,0,0,1,20.13,6c7.36,3.43,11.45,7.95,12.37,13.38a29.54,29.54,0,0,1-.61,6.12c-1.22,6-4.32,12.23-9.09,18.7A28.76,28.76,0,0,1,445,448.46,44.27,44.27,0,0,1,428.4,452a33.68,33.68,0,0,1-3.63-.19,18.31,18.31,0,0,1-6.9-1.88,79,79,0,0,0,11.62-18.66,48.92,48.92,0,0,0,3.81-12.39,20.73,20.73,0,0,0,.11-5.41,9.29,9.29,0,0,0-2-.45c-.23,0-.47,0-.7,0-2.67,0-5.38,1.55-8.07,4.66-2.93,3.38-5,8.09-6.37,14.11-.55,3.31-1,6.66-1.35,10.07a219.53,219.53,0,0,0-1.12,23.09c0,1.71-.08,3.43-.13,5.14,7.31-1.49,17.13-4.85,30-9.68A220.3,220.3,0,0,0,480,442.87a14.51,14.51,0,0,1,7.1,4c2.38,2.23,3.62,4.21,3.78,5.92-9.21,5.12-21.45,10.85-36.15,17.74a205.1,205.1,0,0,1-42.31,14.95,23.39,23.39,0,0,1-6.81,12.5,28.3,28.3,0,0,1-11.84,6.43,47.15,47.15,0,0,1-12.54,1.67l-1.55,0a43.86,43.86,0,0,1-21-5.61c-8.71-5-13.57-13.56-14.13-26.1a34,34,0,0,1,4.87-19.56c3-5,5.55-7.55,7.58-7.57h0c.67,0,1,.49,1,1.46-.12,2-.24,4-.35,6a73.55,73.55,0,0,0,10.07,5.18,100.82,100.82,0,0,0,16.4,5.55l.12-2.93A110.29,110.29,0,0,0,382.71,445a58.77,58.77,0,0,1-1.24-12.69c.87-10.72,3.28-18.11,7.33-22.11a52,52,0,0,1,21.53-11.81c8.73-2.51,15.9-3.69,21.32-3.69m-55.86,86a5.39,5.39,0,0,0,3.94-1.61,199.86,199.86,0,0,1-21-12.31c2.17,9.19,7.74,13.72,16.87,13.92h.16m55.86-101.47c-7.07,0-15.69,1.44-25.6,4.29a67.57,67.57,0,0,0-27.87,15.42l-.28.27c-6.81,6.73-10.7,17.16-11.88,31.9,0,.23,0,.47,0,.7q0,1.23,0,2.52a16.28,16.28,0,0,0-8.85-2.58h-.21c-11.74.11-18.21,10.93-20.68,15.1A49.37,49.37,0,0,0,329.15,475c1,22.4,12.48,33.52,22,38.91a59.51,59.51,0,0,0,28.15,7.64c.67,0,1.35,0,2,0a63.19,63.19,0,0,0,16.63-2.22,43.83,43.83,0,0,0,18.22-9.95,36.55,36.55,0,0,0,8.12-10.9,231.31,231.31,0,0,0,37.12-13.95c14.7-6.89,27.4-12.84,37.09-18.23a15.5,15.5,0,0,0,7.91-14.94c-.5-5.63-3.4-11-8.61-15.84a29.67,29.67,0,0,0-14.86-7.94,16.3,16.3,0,0,0-2-.24c.38-1.31.7-2.61,1-3.92a44.77,44.77,0,0,0,.92-9.35,15.35,15.35,0,0,0-.22-2.43c-1.26-7.44-5.94-17.8-21.13-24.86a79.74,79.74,0,0,0-25.06-7.39c-1.51-.15-3.1-.23-4.75-.23Z"/><path class="cls-2" d="M473,524a56.24,56.24,0,0,1-10.54-1,49.82,49.82,0,0,1-23.07-10.46c-6.86-5.62-14.46-16.28-11.58-35.07A43,43,0,0,1,438.3,454.9c5.36-6.13,9.81-8.9,14.36-8.9a11,11,0,0,1,1.52.11,8.58,8.58,0,0,1,5.78,3.51,9.12,9.12,0,0,1,1.44,7.19c0,.18-.08.36-.13.54l-.26,1q1.83,1.35,4.46,3.1,2.22,1.49,4.89,3a85.22,85.22,0,0,0,.63-8.93,65.33,65.33,0,0,1,1.51-14.42l.09-.33c3.54-12.37,8.34-20.53,14.69-24.92l.15-.1a62.67,62.67,0,0,1,26.9-9.55,118.34,118.34,0,0,1,14.36-1,53.41,53.41,0,0,1,13.43,1.47,69,69,0,0,1,21,10.2c11,7.57,13.06,16,12.88,21.81a8.17,8.17,0,0,1-.14,1.2,38.1,38.1,0,0,1-2.27,7.48c-2.61,6.26-6.94,12.32-13.22,18.48,4-1.32,8-2.76,11.94-4.31a7.8,7.8,0,0,1,5.49-.08,21.47,21.47,0,0,1,9.82,7.78c3.12,4.23,4.44,8.12,4,11.89a7.76,7.76,0,0,1-5.11,6.49c-10.28,3.66-23.77,7.47-39.39,11.88l-.25.07a224.67,224.67,0,0,1-41.87,8A30.91,30.91,0,0,1,495.21,518a37.22,37.22,0,0,1-16.28,5.66A54.25,54.25,0,0,1,473,524Zm41.26-47.68,1.68-.26c-.52-.15-1-.31-1.52-.49C514.34,475.77,514.28,476,514.23,476.27Z"/><path class="cls-1" d="M528.69,412.94a45.13,45.13,0,0,1,11.44,1.22,61.22,61.22,0,0,1,18.62,9.08c6.58,4.54,9.71,9.65,9.53,15.17a30.56,30.56,0,0,1-1.82,6c-2.4,5.76-6.69,11.42-12.68,17.07a30.31,30.31,0,0,1-14.26,7.27,49.75,49.75,0,0,1-11,1.31,37.65,37.65,0,0,1-9.63-1.22,17.92,17.92,0,0,1-6.44-2.94,84.37,84.37,0,0,0,15.15-16.62,51.16,51.16,0,0,0,6.23-11.65,21.17,21.17,0,0,0,1.19-5.32,8.59,8.59,0,0,0-1.87-.75,6.51,6.51,0,0,0-1.77-.23c-2.36,0-5,1.14-7.8,3.43q-5.34,4.32-9.09,12.94-1.8,4.77-3.33,9.74A223.15,223.15,0,0,0,505.52,480c-.37,1.69-.75,3.37-1.13,5.06,7.51-.33,17.86-2.1,31.49-4.85a229.07,229.07,0,0,0,39.31-11.5,13.85,13.85,0,0,1,6.22,5.1c1.91,2.59,2.75,4.75,2.57,6.46-10.09,3.6-23.29,7.32-39.14,11.8a212.12,212.12,0,0,1-44.67,8.08A24.6,24.6,0,0,1,491,511.43a29.32,29.32,0,0,1-12.92,4.48,46.68,46.68,0,0,1-5.13.28,48.33,48.33,0,0,1-9.09-.87,42.5,42.5,0,0,1-19.58-8.82c-7.64-6.26-10.76-15.48-8.86-27.92a35.23,35.23,0,0,1,8.64-18.51c3.69-4.22,6.59-6.31,8.58-6.31a2.56,2.56,0,0,1,.39,0c.66.09.91.63.72,1.59q-.76,2.92-1.52,5.85a70.47,70.47,0,0,0,8.9,6.67,97.19,97.19,0,0,0,15.09,8l.69-2.87a112.34,112.34,0,0,0,1.81-17.49,58.69,58.69,0,0,1,1.3-12.7c3-10.44,6.85-17.35,11.65-20.68a55,55,0,0,1,23.6-8.33,110.75,110.75,0,0,1,13.4-.92m-62.81,76.8a5.6,5.6,0,0,0,3.24-1,190.45,190.45,0,0,1-18.27-15.41c.34,9.39,4.94,14.73,13.92,16.35a6.11,6.11,0,0,0,1.11.1m62.81-92.3a125.31,125.31,0,0,0-15.3,1,70.32,70.32,0,0,0-30.22,10.77l-.31.2c-7.88,5.46-13.68,15-17.73,29.17-.06.22-.12.45-.17.67-.27,1.12-.51,2.29-.71,3.5a16.25,16.25,0,0,0-9-4.34,18.93,18.93,0,0,0-2.63-.19c-8.92,0-15.48,6.16-20.2,11.55a50.67,50.67,0,0,0-12.34,26.41c-3.43,22.42,5.91,35.37,14.35,42.29a58.14,58.14,0,0,0,26.5,12,64.17,64.17,0,0,0,12,1.15,61.79,61.79,0,0,0,6.79-.37,45,45,0,0,0,19.63-6.84,37.75,37.75,0,0,0,10.11-9.55A237.43,237.43,0,0,0,549.06,507l.21-.06c15.77-4.45,29.38-8.29,39.92-12.05a15.52,15.52,0,0,0,10.21-13c.6-5.7-1.25-11.52-5.51-17.3a29,29,0,0,0-13.41-10.47c-.43-.15-.85-.29-1.28-.4.57-1.13,1.1-2.27,1.57-3.42a46.08,46.08,0,0,0,2.74-9,16,16,0,0,0,.27-2.4c.25-7.7-2.36-18.89-16.22-28.44a76.75,76.75,0,0,0-23.44-11.31,59.77,59.77,0,0,0-15.43-1.73Z"/><path class="cls-2" d="M591.6,565.4a10.1,10.1,0,0,1-4.31-1.06c-2.8-1.37-5.44-3.86-8.56-8.08A81.2,81.2,0,0,1,571.8,545c-1.76-3.41-3.36-7.23-3-10.93-4.13,1.24-8.33,2.54-12.66,3.93-5,1.62-8.73,2.87-11.15,3.69-3.66,1.23-4.23,1.43-5.34,1.51a8.83,8.83,0,0,1-.89,0,10.44,10.44,0,0,1-3.48-.6c-2.94-1-5.84-3.19-9.41-7a85.83,85.83,0,0,1-8.18-10.29c-2.53-3.69-5.66-9.23-3.66-14.74,4.52-12.27,16.64-24.76,36-37.14,18.82-12,40.36-20.47,64.05-25.29a122.37,122.37,0,0,1,23.83-2.76c7.22,0,13.09,1.07,17.45,3.17,8.53,4.11,15.92,12.36,22,24.52,9.1,16.73,6.14,29,2.05,36.32a7.75,7.75,0,0,1-3,3,74.67,74.67,0,0,1-10.21,4.85c0,.28-.06.57-.1.85a7.75,7.75,0,0,1-5.46,6.33c-2.32.69-4.48,1.38-6.5,2.06l8.42-1C674.49,524,684.46,522.53,693,521a8,8,0,0,1,1.37-.12,7.76,7.76,0,0,1,4.3,1.3,20.86,20.86,0,0,1,7.53,10c1.94,4.88,2.23,9,.9,12.57a7.77,7.77,0,0,1-6.45,5c-4.25.45-8.81.9-13.67,1.39-5.94.59-12.34,1.22-19.15,1.95-11.77,1.26-23.69,2.85-35.44,4.72s-21,3.71-27.81,5.11c-3.41.7-6,1.27-7.89,1.67-3.66.79-4,.87-5,.87Zm11.14-70.34q-3,1.29-5.58,2.52l7.86-1.9c10-2.39,18.49-4.62,26-6.79,0-.11-.27-.53-.32-.62a7.61,7.61,0,0,0-.4-.74,66.37,66.37,0,0,0-7,1A113.22,113.22,0,0,0,602.74,495.06Z"/><path class="cls-1" d="M637.9,453.18c6.12,0,10.85.83,14.08,2.39,6.76,3.26,13.11,10.32,18.45,21.12,6.15,11.25,6.62,21,2.16,29A61.74,61.74,0,0,1,658,511.77a11.89,11.89,0,0,1,.45,5.23c-13.79,4.11-23.69,8.5-30.1,12.63-3.75,2.5-6,4.44-6.86,5.8-.58.93-.54,1.62.13,2.07a5.3,5.3,0,0,0,1.47.14c2.08,0,6.06-.39,12-1,8-.88,17.41-2.1,28.43-3.45s21.33-2.8,30.91-4.52A13.15,13.15,0,0,1,699,535c1.2,3,1.46,5.33.84,7-9.44,1-20.44,2-32.83,3.34s-24.33,2.94-35.83,4.77-20.81,3.66-28.16,5.17-11,2.38-11.36,2.38h0a2.27,2.27,0,0,1-1-.28c-1.59-.77-3.48-2.68-5.72-5.71a73.86,73.86,0,0,1-6.26-10.21c-2-3.77-2.65-6.28-2-7.55,2.18-4.23,6.21-8.77,12.27-13.5-14,3.61-25.68,7.14-35.25,10.21s-14.36,4.84-14.76,4.86l-.25,0a2.76,2.76,0,0,1-.92-.17c-1.67-.58-3.76-2.25-6.32-5A76.48,76.48,0,0,1,524,521c-2.41-3.51-3.37-6.07-2.77-7.7,3.55-9.67,13.93-21.15,32.92-33.26,17.46-11.11,38-19.45,61.43-24.23a114.75,114.75,0,0,1,22.28-2.6m-71.51,59.15c1.49,0,5.68-.89,12.72-2.5,7.8-1.76,17-4,27.72-6.61s20.78-5.19,30.06-8l.72,0a14,14,0,0,1,3.63.53,36.61,36.61,0,0,0-3.59-10.85,9.91,9.91,0,0,0-4.37-4.92,5,5,0,0,0-1.89-.25,59.37,59.37,0,0,0-9.51,1.19,119.89,119.89,0,0,0-22.14,7c-13,5.64-22.25,11.09-28.07,15.87-3.44,2.78-5.48,4.93-6.19,6.44-.45,1-.28,1.68.53,2.08a1.94,1.94,0,0,0,.38,0m71.51-74.66a130.16,130.16,0,0,0-25.37,2.91c-24.63,5-47,13.87-66.66,26.34-20.89,13.32-34.05,27.11-39.16,41-3.62,9.92,2.52,18.88,4.53,21.82A92.7,92.7,0,0,0,520.17,541c4.46,4.76,8.32,7.54,12.49,9a18.19,18.19,0,0,0,6.05,1q.75,0,1.5-.06c2.06-.16,3.23-.55,7.22-1.9,2.43-.82,6.09-2,11.06-3.66l4.3-1.36a48.33,48.33,0,0,0,2.12,4.55,88.84,88.84,0,0,0,7.59,12.32c3.89,5.28,7.41,8.5,11.39,10.44a17.64,17.64,0,0,0,7.65,1.84h.15c1.83,0,2.76-.2,6.69-1q2.76-.6,7.83-1.67c6.67-1.37,15.84-3.19,27.44-5s23.41-3.41,35-4.66c6.79-.72,13.06-1.35,19.12-2q7.28-.72,13.7-1.39a15.51,15.51,0,0,0,12.89-10c2-5.39,1.69-11.49-1-18.14A28.38,28.38,0,0,0,703,515.71a15.52,15.52,0,0,0-8.61-2.6,15.85,15.85,0,0,0-2.74.24c-2,.37-4.11.72-6.3,1.08a13.15,13.15,0,0,0,.76-1.23c5-9,8.76-23.9-1.94-43.67-6.81-13.67-15.38-23.06-25.47-27.93-5.5-2.65-12.31-3.93-20.82-3.93Z"/><path class="cls-2" d="M57.22,379.57a43.6,43.6,0,0,1-16-3.27l-1.93-.8-.25-.11c-4.47-2.08-8.44-5.73-11.79-10.87-2.25-3.45-4.77-9-7.49-16.64a54,54,0,0,1-2-27.57,5.89,5.89,0,0,1,.27-1c6.44-17.9,17.68-30.87,32.51-37.52.57-.26,1.14-.5,1.71-.73-4.2,0-8.72-.12-13.72-.3a6,6,0,0,1-2.59-.69c-8.5-4.48-14.9-10.52-19-17.95-1.73-3.13-3.52-8.17-5.46-15.42C9.23,238.5,10,227,13.72,212.57A170.28,170.28,0,0,1,32.9,167.85a232.43,232.43,0,0,1,33.36-42.91,251.29,251.29,0,0,1,46.31-37.53c16.78-10.58,33.33-17.59,49.19-20.83a36.44,36.44,0,0,1,7.32-.77,31.36,31.36,0,0,1,13.14,2.83,52.18,52.18,0,0,1,14.4,9.57c3.88,3.73,6.44,6.83,7.83,9.46A41.71,41.71,0,0,1,208.31,99a88.69,88.69,0,0,1,1.17,12.88c.21,6.11-1.58,13.16-5.46,21.55l-.18.36c-3.55,6.47-9.56,12.51-18.38,18.48a140.11,140.11,0,0,1-25.18,13.61,73.78,73.78,0,0,1-11.25,4,35.82,35.82,0,0,1-8.65,1.18,24.66,24.66,0,0,1-2.61-.13,6,6,0,0,1-4.91-8.23,146.78,146.78,0,0,0,6.76-22,124.61,124.61,0,0,0,2.49-14.37c-1.94.92-4.19,2.08-6.82,3.56a123.64,123.64,0,0,0-21.54,16.08,150.27,150.27,0,0,0-22.86,26.82,208.53,208.53,0,0,0-16.15,28.86C70.82,210.24,69,218.46,69.23,226a24.37,24.37,0,0,0,2.24,9.48,32,32,0,0,0,6.06,8.62c.36.25,1.57.9,4.6,1.31,3.33.45,7.18.84,11.75,1.18A105.18,105.18,0,0,1,116.72,250c12.31,3.32,17.43,10.82,19.57,16.52,2.61,6.94,2,15.95-2,28.35A182.37,182.37,0,0,1,98,358.05l-.07.08c-2.09,2.29-5.66,5.23-12,9.85a84.16,84.16,0,0,1-12,7.3c-2,1-4,1.87-6,2.65l-.49.17A36.58,36.58,0,0,1,57.22,379.57Zm19-92.43a57.35,57.35,0,0,0-1.65,6.27c-5.45,24.26-5.74,36.85-5.17,41.71a70.44,70.44,0,0,0,7.38-15.56C80.3,310,88.45,287.85,87.69,282.7a10.76,10.76,0,0,0-2.64-1.24c-.78-.27-3.26-.91-9.36-.95a6,6,0,0,1,.51,6.63Z"/><path class="cls-1" d="M169.08,71.81a25.34,25.34,0,0,1,10.64,2.29,45.58,45.58,0,0,1,12.74,8.44c3.42,3.29,5.63,5.94,6.69,7.94a35.79,35.79,0,0,1,3.27,9.66,84.42,84.42,0,0,1,1.06,12c.18,5.22-1.51,11.48-4.9,18.82-3.11,5.67-8.64,11.09-16.49,16.39A133.52,133.52,0,0,1,158,160.36a68.87,68.87,0,0,1-10.38,3.69,30.17,30.17,0,0,1-7.19,1,17.73,17.73,0,0,1-2-.1A153.66,153.66,0,0,0,145.47,142a117.44,117.44,0,0,0,3.21-24.56c-4,.93-9.46,3.3-16.34,7.18a128.75,128.75,0,0,0-22.62,16.85,156.19,156.19,0,0,0-23.79,27.9,212.72,212.72,0,0,0-16.65,29.75c-4.4,9.67-6.34,18.73-6.05,27.1A30.19,30.19,0,0,0,66,238a37.45,37.45,0,0,0,7.47,10.56c1.61,1.39,4.23,2.31,7.83,2.8s7.68.88,12.22,1.22a99.29,99.29,0,0,1,21.65,3.15c8,2.16,13.1,6.51,15.47,12.83,2.16,5.72,1.29,13.85-2.1,24.4a176.65,176.65,0,0,1-35.06,61.09c-1.89,2.07-5.6,5.05-11.07,9.06a77,77,0,0,1-11.13,6.75q-2.76,1.37-5.54,2.45a30.17,30.17,0,0,1-8.55,1.23,37.35,37.35,0,0,1-13.81-2.85L41.54,370c-3.42-1.59-6.53-4.48-9.29-8.71-1.92-2.94-4.24-8.06-6.87-15.38a48,48,0,0,1-1.74-24.54c6-16.6,16.11-28.15,29.32-34.08A35.11,35.11,0,0,1,67.35,284a31.08,31.08,0,0,1,3.61.21c-.41.59-1.2,3.21-2.26,7.87-6.21,27.63-6.56,43.55-4.15,48q2,3.6,4.83,4.15c4.94-4.31,9.14-11.83,13-22.64,8.48-23,12.92-36.83,10.72-41.57-.73-1.63-2.75-3-6.09-4.22-2.36-.83-6.35-1.29-12-1.29-2.34,0-5,.08-7.85.24q-6,.3-12.83.3c-4.89,0-10.11-.11-15.66-.3-7.36-3.89-12.95-9-16.58-15.57-1.43-2.56-3.09-7.24-4.92-14.05S16,228,19.53,214.06A164.1,164.1,0,0,1,38,170.94a226.16,226.16,0,0,1,32.52-41.82,244.75,244.75,0,0,1,45.21-36.63c16.47-10.39,32.43-17,47.19-20a31.13,31.13,0,0,1,6.12-.64m0-12a42.63,42.63,0,0,0-8.53.89C144,64.09,126.76,71.37,109.37,82.33A258,258,0,0,0,62,120.76a238.49,238.49,0,0,0-34.21,44A176,176,0,0,0,7.91,211.07c-4,15.47-4.74,28-2.29,37.16,2.07,7.73,4,13.22,6,16.77,4.71,8.48,11.93,15.32,21.48,20.36a3.59,3.59,0,0,0,.34.17c-9.19,7.84-16.36,18.57-21.1,31.73a11.78,11.78,0,0,0-.54,2,59.89,59.89,0,0,0,2.28,30.61c2.91,8.14,5.57,14,8.1,17.88,4,6.1,8.79,10.48,14.29,13l.5.22,1.83.75.17.08a49.52,49.52,0,0,0,18.24,3.69,42.28,42.28,0,0,0,11.93-1.72c.33-.09.66-.21,1-.33,2.16-.85,4.34-1.81,6.48-2.86a89.76,89.76,0,0,0,12.87-7.8l.06-.05c6.71-4.92,10.43-8,12.84-10.64,0-.05.09-.1.13-.16a187.84,187.84,0,0,0,37.42-65.16l.06-.19c4.42-13.76,5-24,1.91-32.3-2.62-7-8.85-16.2-23.57-20.18l-.08,0a111.85,111.85,0,0,0-24-3.52c-4.4-.33-8.09-.7-11.27-1.13a14.38,14.38,0,0,1-1.87-.36A25.05,25.05,0,0,1,76.91,233a18.24,18.24,0,0,1-1.68-7.16c-.23-6.65,1.44-14,5-21.73a201.5,201.5,0,0,1,15.69-28,143.82,143.82,0,0,1,21.89-25.71,130.42,130.42,0,0,1,16.39-12.83c-.12.59-.26,1.18-.39,1.77a142.87,142.87,0,0,1-6.48,21.12,12,12,0,0,0,9.82,16.44,31.61,31.61,0,0,0,3.26.17,40.81,40.81,0,0,0,10.11-1.37,78.38,78.38,0,0,0,12.13-4.27,146.71,146.71,0,0,0,26.2-14.17c9.63-6.51,16.26-13.24,20.28-20.57.13-.23.25-.48.36-.72,4.29-9.27,6.26-17.21,6-24.28a92.3,92.3,0,0,0-1.27-13.81A47.52,47.52,0,0,0,209.8,85l0-.1c-1.73-3.25-4.58-6.73-9-11a57.8,57.8,0,0,0-16.07-10.7,37.35,37.35,0,0,0-15.64-3.38Z"/><path class="cls-2" d="M172.6,317.58a41.34,41.34,0,0,1-7.8-.91,105.29,105.29,0,0,1-14.44-4c-4.6-1.6-10.12-4-11.89-8.79-4.84-13-3.43-31.93,4.09-54.59,7.4-22.18,19.53-43.06,36.05-62.09,8.91-10.26,22.08-22.92,34.21-25a35.79,35.79,0,0,1,6-.48c8.41,0,18.17,2.63,29,7.81,15.14,6.61,24.23,16,27,28.07a6,6,0,0,1-.21,3.4,68.55,68.55,0,0,1-5.46,11.72,19.34,19.34,0,0,1,1.49,2,6,6,0,0,1-.07,6.66c-7.11,10.41-11.13,18.25-13.41,23.81,5.24-5.09,11.16-11.07,18-17.94l2.61-2.63c8.76-8.86,16-16.62,22.14-23.75a6,6,0,0,1,4.21-2.07c.29,0,.59,0,.89,0a22.8,22.8,0,0,1,11,3.28c4.5,2.52,7.3,5.31,8.57,8.52a6,6,0,0,1-1.34,6.45c-4.29,4.28-9.11,9-14.2,13.95q-5.1,5-10.71,10.47c-9,8.83-17.9,18-26.5,27.27s-15.19,16.9-20,22.59c-2.23,2.61-4,4.69-5.26,6.22-2.94,3.49-3.1,3.69-3.88,4.23a8.49,8.49,0,0,1-3.52,1.4,13.48,13.48,0,0,1-2.35.19,33.85,33.85,0,0,1-9.6-1.78,99.51,99.51,0,0,1-13.9-5.41c-4.88-2.3-9.56-5-10.65-9.47-.18-.74-.34-1.5-.47-2.28-3.74,5.1-7.47,10.34-11.34,15.92-3,4.37-5.3,7.76-6.81,10-2.55,3.78-2.83,4.19-3.59,4.84a8.73,8.73,0,0,1-3.47,1.84A15.88,15.88,0,0,1,172.6,317.58Zm26.47-85c-5.85,11.1-8.93,19.32-10.55,25.06,4.73-5.67,10-12.32,16.17-20l2-2.56c7.31-9.14,13.38-17.18,18.5-24.53a34,34,0,0,0-3.79-2l-.21-.1a9.07,9.07,0,0,0-3.13-1,52.22,52.22,0,0,0-6.15,6.13A110.9,110.9,0,0,0,199.07,232.56Z"/><path class="cls-1" d="M218.78,167.77c7.36,0,16.31,2.37,26.53,7.27C259,181,266.68,189.14,269,199a57.67,57.67,0,0,1-7.66,14.76,15.14,15.14,0,0,1,4.3,4.29c-8.51,12.49-13.63,22.71-16,30.47-1.32,4.61-1.79,7.79-1.5,9.53.19,1.16.72,1.74,1.58,1.74h.08c1.17-.35,4.68-3.55,10.79-9.48S273.75,237.22,282,228.9s15.76-16.31,22.43-24.05l.55,0a16.9,16.9,0,0,1,8,2.52c3.23,1.81,5.19,3.64,5.92,5.48-7.08,7.07-15.47,15.15-24.88,24.39s-18.28,18.41-26.68,27.47-15,16.69-20.23,22.77-7.76,9.26-8,9.44a2.52,2.52,0,0,1-1.08.4,7.86,7.86,0,0,1-1.34.1,29.2,29.2,0,0,1-7.87-1.52,94,94,0,0,1-13.07-5.09c-4.51-2.13-7-3.93-7.38-5.48-1.28-5.17-1.17-11.79.53-19.85-9.43,12.13-17,22.68-23.1,31.5s-9.06,13.44-9.39,13.71a2.82,2.82,0,0,1-1.15.61,10.21,10.21,0,0,1-2.68.3,36.49,36.49,0,0,1-6.65-.79A100.67,100.67,0,0,1,152.33,307c-4.77-1.66-7.55-3.38-8.23-5.23-4.08-11-3.39-27.85,4.16-50.6,7-20.89,18.45-41.12,34.88-60,12.25-14.09,22.87-21.66,30.68-23a30.22,30.22,0,0,1,5-.39m-36.24,105,.34,0c1-.44,4.12-4,9.56-10.48s11.7-14.34,19-23.44,13.88-17.79,19.64-26.15a13.15,13.15,0,0,1,4.07-2.33,48.14,48.14,0,0,0-11.22-7.29,14,14,0,0,0-6.11-1.69,8,8,0,0,0-1.32.11c-1.31.23-4.36,2.89-9,8a116,116,0,0,0-13.69,20.18c-7,13.24-10.88,23.91-12.36,31.86-.92,4.66-1.09,7.88-.57,9.68.3,1,.86,1.55,1.68,1.55m36.24-117a42.47,42.47,0,0,0-7,.56c-11.14,1.89-23.84,11-37.74,26.95-17,19.63-29.56,41.2-37.21,64.12-8.07,24.33-9.42,44-4,58.58,2.65,7.11,9.7,10.35,15.54,12.38a110.71,110.71,0,0,0,15.26,4.2,46.65,46.65,0,0,0,8.95,1,22,22,0,0,0,5.88-.73,14.76,14.76,0,0,0,5.78-3.08c1.37-1.16,1.87-1.9,4.66-6,1.5-2.22,3.77-5.59,6.78-9.94q2.85-4.12,5.64-8a35.67,35.67,0,0,0,9.32,5.89,105,105,0,0,0,14.73,5.73,39.79,39.79,0,0,0,11.32,2,20.15,20.15,0,0,0,3.36-.27,14.57,14.57,0,0,0,6-2.42c1.41-1,1.93-1.6,5-5.27,1.28-1.52,3-3.59,5.24-6.2,4.81-5.63,11.43-13.28,19.88-22.39s17.38-18.3,26.31-27.07q5.58-5.49,10.68-10.45c5.11-5,9.94-9.7,14.25-14a12,12,0,0,0,2.69-12.89c-1.79-4.55-5.46-8.33-11.21-11.55a28.6,28.6,0,0,0-13.92-4c-.41,0-.83,0-1.24,0a12,12,0,0,0-8.41,4.15c-5.08,5.9-10.94,12.26-17.83,19.33a11.77,11.77,0,0,0-1.29-3.94,76.94,76.94,0,0,0,4.05-9.32,11.86,11.86,0,0,0,.41-6.8c-3.23-13.93-13.45-24.76-30.36-32.16-11.63-5.55-22.23-8.36-31.52-8.36Z"/><path class="cls-2" d="M302.19,295.61c-2.79,0-6.23-.89-10.82-2.82a94.26,94.26,0,0,1-12.92-6.69c-5.7-3.5-8.42-6.14-9.4-9.13a5.82,5.82,0,0,1-.26-1.24c-1.31-12.45,10.37-40.8,30.49-74,22.53-36.62,48.87-69,78.3-96.26,12.32-11.35,20.84-17.67,25.32-18.79.22,0,.45-.1.68-.13a28.38,28.38,0,0,1,3.51-.22c.75,0,1.53,0,2.31.09a63.43,63.43,0,0,1,14.92,3.32,47.66,47.66,0,0,1,16.57,9.46c.13.11.25.23.37.35a25,25,0,0,1,5.07,7.34,27.08,27.08,0,0,1,1.88,5.94c0,.22.06.44.08.67l.11,2a6,6,0,0,1-8.9,5.59,12.4,12.4,0,0,0-4.58-1.58l-.62,0h-.24a339.32,339.32,0,0,0-59.84,55q4.69-3.1,9.48-6a125.92,125.92,0,0,1,32.07-13.89,5.49,5.49,0,0,1,1.5-.21l1.48,0,.54,0c3.21.29,7.49,1.87,13.09,4.82a109.51,109.51,0,0,1,15.07,9.62c6,4.55,8.78,7.66,9.66,10.76a6,6,0,0,1,.21,1.2,32.66,32.66,0,0,1-.35,7.54c-.82,5.12-3,11-6.8,18.05a142.79,142.79,0,0,1-10.87,17,256.91,256.91,0,0,0,23.42-14.79,6,6,0,0,1,3.5-1.13,6.22,6.22,0,0,1,1,.08,21.87,21.87,0,0,1,11,5.81c3.82,3.49,5.88,6.86,6.31,10.32a6,6,0,0,1-2.78,5.83c-10,6.24-23.1,13.38-38.28,21.66l-.12.06c-17.09,9.33-32.56,15.8-47.23,19.75-6.77,5.81-12.87,10.6-18.63,14.62-8.76,6-15.1,8.68-20.61,8.68h-.26c-7-.11-14.7-2.9-23.64-8.53a71.76,71.76,0,0,1-15.18-12.84c-5.49,15.22-7.58,18.94-9.86,21a6,6,0,0,1-2.21,1.27,11.2,11.2,0,0,1-2.66.49C302.77,295.6,302.48,295.61,302.19,295.61Zm53.42-70.7c4.54,1.6,9.5,3.28,14.62,5l.88-1.15c8.67-12,14.32-21,17.75-28.21-5.92,3.66-12.32,8-19.05,13C365,217.16,360.2,221,355.61,224.91Z"/><path class="cls-1" d="M407.09,92.34c.61,0,1.24,0,1.88.07a58.18,58.18,0,0,1,13.47,3,41.55,41.55,0,0,1,14.5,8.27,19.08,19.08,0,0,1,3.87,5.55,21.75,21.75,0,0,1,1.49,4.59c0,.66.07,1.32.11,2a18.11,18.11,0,0,0-6.86-2.29,11.08,11.08,0,0,0-1.25-.07,5.91,5.91,0,0,0-3.36.86c-37.9,27.41-65.81,57.95-85.7,89.32q6.17-5,12.54-9.83a270.9,270.9,0,0,1,29-20.25,119.41,119.41,0,0,1,30.54-13.24l1.41,0c2.31.22,5.95,1.58,10.84,4.16a103.83,103.83,0,0,1,14.24,9.09c4.59,3.49,7.06,6.05,7.51,7.61a26.94,26.94,0,0,1-.3,6.17c-.71,4.51-2.8,9.89-6.16,16.16a149.72,149.72,0,0,1-13.32,20.1c-5.47,7.14-10.37,13.21-14.78,18.2,19.08-9.31,35.71-18.57,49.44-28.43a16.09,16.09,0,0,1,7.94,4.33c2.7,2.47,4.16,4.68,4.4,6.62-9.87,6.16-22.76,13.18-38.1,21.54-16.7,9.12-32.22,15.68-47.23,19.58A237.07,237.07,0,0,1,374,280.59c-7.32,5-12.94,7.6-17.17,7.6h-.16c-5.94-.1-12.68-2.66-20.55-7.61A67.41,67.41,0,0,1,316,260.74q-1.71,4.33-3.35,8.68c-4.19,11.68-7,18.35-8.74,19.95a5,5,0,0,1-1.25.23h-.45c-2,0-4.78-.79-8.5-2.35a87.32,87.32,0,0,1-12.1-6.27c-4.06-2.49-6.36-4.44-6.84-5.89-.9-8.62,6.78-32.5,29.67-70.25,23.48-38.17,50.11-69.83,77.24-95,11.89-10.95,19.71-16.62,22.69-17.37a21.79,21.79,0,0,1,2.74-.17M372.31,236.93c1.19-1.44,2.4-3,3.62-4.6,8.24-11.4,14.54-21.12,18.43-29.36,2.09-4.63,3.25-8.05,3.43-10.27.14-1.76-.34-2.78-1.43-3-.79.05-4.12,1.78-9.85,5.29S374,203,366.24,208.74a245.84,245.84,0,0,0-22.05,18.37c7.42,2.86,16.85,6.06,28.12,9.82m-20.84,18,1.5-.12c1-.27,3.81-2.44,8.55-6.43q-14.56-4.78-27.77-10.52l-.75.71a58.08,58.08,0,0,0,10.52,12.3c3,2.69,5.66,4,8,4.06M407.09,80.34a33.27,33.27,0,0,0-4.29.27,12.19,12.19,0,0,0-1.34.26c-2.47.61-8.25,2-27.94,20.19-29.85,27.66-56.53,60.45-79.33,97.5l0,.07c-21.39,35.3-32.81,63.63-31.33,77.73a12.46,12.46,0,0,0,.53,2.48c1.82,5.53,6.82,9.22,12,12.37a100.08,100.08,0,0,0,13.74,7.12c5.42,2.27,9.47,3.28,13.14,3.28.43,0,.85,0,1.27,0a17.36,17.36,0,0,0,4.06-.76,12,12,0,0,0,4.43-2.54c2.7-2.45,4.83-6.08,8.21-14.68a75.78,75.78,0,0,0,9.61,7.15c9.89,6.23,18.64,9.32,26.74,9.45h.35c6.8,0,14.19-3,24-9.7l.07-.06c5.63-3.93,11.56-8.55,18.08-14.1,14.73-4.1,30.22-10.64,47.23-19.93l.14-.07c15.25-8.31,28.42-15.49,38.56-21.82a12,12,0,0,0,5.56-11.67c-.62-4.93-3.31-9.51-8.23-14a27.69,27.69,0,0,0-14.09-7.3,12.56,12.56,0,0,0-1.93-.16,12,12,0,0,0-7,2.26l-1.49,1.06a57.46,57.46,0,0,0,5.16-15.46,38.46,38.46,0,0,0,.41-8.92,11.59,11.59,0,0,0-.42-2.41c-1.26-4.46-4.68-8.49-11.8-13.89a116.21,116.21,0,0,0-15.89-10.16c-6.41-3.37-11.29-5.11-15.35-5.49-.36,0-.73-.05-1.09-.05h-.11l-1.43,0a11.89,11.89,0,0,0-3,.42q-5.18,1.4-10.3,3.29a353.87,353.87,0,0,1,31.65-26.22,11.23,11.23,0,0,1,1.06.51,12,12,0,0,0,17.79-11.19l-.11-2a12.06,12.06,0,0,0-.16-1.33,32.88,32.88,0,0,0-2.27-7.26,30.84,30.84,0,0,0-6.27-9.16,10,10,0,0,0-.74-.71,53.7,53.7,0,0,0-18.63-10.64,69.19,69.19,0,0,0-16.38-3.61c-.92-.06-1.85-.1-2.74-.1Zm-39.4,142.39.82-.65c-.17.25-.35.5-.53.74l-.29-.09Z"/><path class="cls-2" d="M457.07,302.39a94.57,94.57,0,0,1-14.27-1.11c-2.78-.42-6.11-2.12-11.13-5.67a116.45,116.45,0,0,1-11.73-9.46c-3.88-3.58-7.4-7.53-6.8-12.14,1.81-13.9,11.91-30.46,29.19-47.89,16.94-17,37.52-30.88,61.19-41.28,14.14-6.21,26.11-9.36,35.58-9.36a32.75,32.75,0,0,1,8.1.94,68.78,68.78,0,0,1,21.85,10.63c8.56,6,13,13.3,13.19,21.68a6.79,6.79,0,0,1,0,.9,35.63,35.63,0,0,1-1.92,7.71c-1.8,5-5.15,10.44-10.21,16.73a137.5,137.5,0,0,1-13.26,14,266,266,0,0,0,25.64-10.44,6,6,0,0,1,4.51-.26,21.6,21.6,0,0,1,9.93,7.6c3.18,4.1,4.62,7.8,4.4,11.31a6,6,0,0,1-3.76,5.2c-10.86,4.33-24.78,9-40.89,14.4l-1.56.53c-20,6.74-35.88,10.4-49.69,11.46-11,6.49-21.15,10.65-30.87,12.7A84.54,84.54,0,0,1,457.07,302.39Zm34.95-56q2.57,1.35,5.38,2.78a263.36,263.36,0,0,0,22.94-18.51q3.9-3.54,6.75-6.66C515.76,229,504,236.47,492,246.36Z"/><path class="cls-1" d="M539.1,181.48a26.34,26.34,0,0,1,6.6.75c6.25,1.62,12.93,4.85,19.91,9.74s10.49,10.57,10.63,16.89a30.14,30.14,0,0,1-1.6,6.42c-1.61,4.42-4.72,9.41-9.26,15a143.09,143.09,0,0,1-17,17.3c-6.75,5.94-12.75,11-18.08,15.19,20.76-6,39.12-12.32,54.7-19.72a15.84,15.84,0,0,1,7.12,5.6c2.24,2.88,3.28,5.31,3.16,7.26-11,4.4-25.25,9.14-42.14,14.81-19.14,6.45-35.4,10.35-49.63,11.26-10.74,6.45-20.73,10.71-30.26,12.72a78.2,78.2,0,0,1-16.2,1.67,88.83,88.83,0,0,1-13.36-1c-1.77-.27-4.61-1.83-8.58-4.64a109.45,109.45,0,0,1-11.12-9c-3.44-3.17-5.11-5.48-4.92-7,1.53-11.7,10-26.82,27.5-44.44,16-16,35.66-29.6,59.34-40,13.69-6,24.91-8.86,33.17-8.86M498,256.11a273.5,273.5,0,0,0,26.42-21.05c8.1-7.36,13.34-13.72,15.4-19.28a9.34,9.34,0,0,0-2.47-1.08,2.84,2.84,0,0,0-.71-.08c-1.88,0-5.65,1.16-11.24,3.56-13.63,5.9-28.46,15.58-43.78,29.23,4.88,2.86,10.34,5.74,16.38,8.7M464.9,273.35c4.34,0,10.71-2.76,19.46-8.11q-6.78-3.53-13.26-7.42c-5.46,5.65-8.37,9.88-8.93,12.62-.31,1.56.2,2.5,1.55,2.83a8.87,8.87,0,0,0,1.18.08m74.2-103.87c-10.3,0-23.09,3.32-38,9.87-24.35,10.7-45.55,25-63,42.52-18.5,18.66-28.89,35.93-30.9,51.36-.95,7.35,3.86,12.89,8.69,17.34a123.58,123.58,0,0,0,12.33,9.94c5.91,4.18,9.87,6.12,13.69,6.7a100,100,0,0,0,15.17,1.18,91,91,0,0,0,18.68-1.93c10-2.11,20.32-6.27,31.47-12.71,14-1.22,29.91-4.95,49.77-11.64l1.53-.51c16.2-5.44,30.2-10.13,41.22-14.52a12,12,0,0,0,7.53-10.41c.31-5-1.53-10.06-5.65-15.36a27.56,27.56,0,0,0-12.74-9.6,12,12,0,0,0-9,.52l-1.37.64a57.44,57.44,0,0,0,7.42-13.49,42.76,42.76,0,0,0,2.22-9,12.07,12.07,0,0,0,.1-1.8c-.17-7.14-3-17.53-15.74-26.45-8.08-5.66-16.08-9.53-23.79-11.53a38.68,38.68,0,0,0-9.61-1.13Z"/><path class="cls-2" d="M579.06,337.4a9.3,9.3,0,0,1-3.34-.65c-2.74-1.06-5.61-3.36-9.29-7.47a84.62,84.62,0,0,1-8.74-11.77c-3.35-5.38-5.12-9.48-3.6-13.31,4.26-10.59,16.51-23.15,35.45-36.34q6.13-4.25,12.79-8.31l-4.79,1.95a6.19,6.19,0,0,1-2.24.43c-.22,0-.43,0-.64,0a16.33,16.33,0,0,1-3.64-.83,19,19,0,0,1-8.91-7.13c-3.49-4.88-3.54-9.25-3-12.06a6,6,0,0,1,3.61-4.36c3.79-1.55,7.67-3.23,11.73-5.06-8.31-7-11.34-11.49-9.4-16.42a6,6,0,0,1,.67-1.25c3.59-5.11,9.79-10.59,18.42-16.28a158.63,158.63,0,0,1,27.92-14.58,6.5,6.5,0,0,1,1.5-.39,21.6,21.6,0,0,1,2.56-.15,26.9,26.9,0,0,1,9.7,2c1.25.49,3.36,1.45,6.27,2.86a41.86,41.86,0,0,1,11.32,8.9c4.55,4.77,6.94,9.86,7.12,15.13a6,6,0,0,1-3.82,5.8c-1.9.74-4.26,1.81-7,3.19l-.6.3c2.25.51,5,1,8.3,1.62a104.9,104.9,0,0,0,12.91,1.47h.77a26.27,26.27,0,0,1,11.2,2.82c1.07.52,3,1.58,5.68,3.16,3.3,1.93,6.77,5.16,10.33,9.6,4.06,5.08,6,10.32,5.65,15.59a6,6,0,0,1-4.24,5.38,404.93,404.93,0,0,0-61.43,24.54c-8.91,4.42-15.61,8.15-20.58,11.19,7.15-1.47,15.23-3.25,24.38-5.27l3.33-.74c13.07-2.88,24.06-5.59,33.59-8.28a6,6,0,0,1,1.63-.22,6.08,6.08,0,0,1,2.79.68,21.74,21.74,0,0,1,8.7,9.12c2.52,4.6,3.34,8.52,2.51,12a6,6,0,0,1-4.67,4.48c-3.49.7-7.16,1.41-11,2.16-7.64,1.49-16.3,3.18-25.45,5.06-13.08,2.69-26.31,5.72-39.32,9s-23.27,6.27-30.79,8.51l-7.19,2.18c-5.69,1.73-6,1.82-7.07,1.82Z"/><path class="cls-1" d="M636.15,189.39a20.86,20.86,0,0,1,7.53,1.57q1.53.58,5.82,2.66a36,36,0,0,1,9.6,7.64c3.53,3.7,5.34,7.45,5.47,11.2-2,.78-4.52,1.91-7.52,3.41-5.62,2.75-8.81,5-9.67,6.83-.42.85,0,1.55,1.33,2.09a57.6,57.6,0,0,0,6,1.85c3,.79,6.82,1.59,11.63,2.43a109.51,109.51,0,0,0,14,1.57l.77,0a20.19,20.19,0,0,1,8.61,2.24q1.31.62,5.24,2.91c2.62,1.54,5.54,4.27,8.67,8.18s4.58,7.75,4.35,11.48a409.61,409.61,0,0,0-62.34,24.9c-22.43,11.13-33.8,19.33-35.75,23.18q-.81,1.67.54,2.37a2.09,2.09,0,0,0,.56.05c1.79,0,6.52-.87,14.34-2.43,8.88-1.76,19.29-4.08,31.39-6.75s23.45-5.41,33.93-8.36a15.8,15.8,0,0,1,6.23,6.69c1.76,3.22,2.39,5.79,1.93,7.7-10.56,2.09-22.8,4.41-36.5,7.23s-26.89,5.85-39.58,9.06-23,6.18-31,8.58-12.2,3.75-12.57,3.75h-.05a3.21,3.21,0,0,1-1.18-.25c-1.79-.69-4.09-2.65-7-5.88a77.71,77.71,0,0,1-8.11-10.93c-2.54-4.06-3.61-6.7-3.12-7.92,3.49-8.7,14.09-20.26,33.3-33.63a307,307,0,0,1,49-27.24c-6.62-.94-12.1-1.73-16.48-2.46Q610,250,595.3,255.93a9.91,9.91,0,0,1-2.26-.51,13,13,0,0,1-6-5c-1.8-2.51-2.47-5-2-7.38q9.93-4,20.76-9.27c-10.79-8.3-16-13.36-15.12-15.56,3-4.33,8.57-9.29,16.81-14.72a151.32,151.32,0,0,1,26.86-14,13.69,13.69,0,0,1,1.82-.11m0-12a27.71,27.71,0,0,0-3.3.2,12,12,0,0,0-3,.78,164.2,164.2,0,0,0-29,15.13c-9.39,6.19-15.94,12-20,17.83a12.73,12.73,0,0,0-1.35,2.52c-2.89,7.37,1.45,13.52,4.32,16.73L580.48,232a12,12,0,0,0-7.22,8.73c-.81,4-.77,10.11,4,16.74a26.74,26.74,0,0,0,7,6.86c-19.08,13.56-31.06,26.21-35.66,37.65-3,7.46,1.61,14.8,4.07,18.75a90,90,0,0,0,9.37,12.6c4.34,4.84,7.92,7.64,11.6,9.06a15.32,15.32,0,0,0,5.49,1h.1c2,0,2.68-.22,8.78-2.08l7.19-2.17c7.46-2.22,17.69-5.2,30.53-8.45s26.06-6.27,39.05-8.94c9.15-1.88,17.81-3.57,25.45-5.06l11-2.15a12,12,0,0,0,9.33-9c1.2-5,.19-10.31-3.08-16.27a27.45,27.45,0,0,0-11.18-11.55,12,12,0,0,0-5.57-1.37,11.71,11.71,0,0,0-3.26.45c-3.91,1.1-8.08,2.21-12.54,3.33a382.74,382.74,0,0,1,36.62-13.26A12,12,0,0,0,720,256.14c.41-6.79-1.94-13.42-7-19.69-4.08-5.09-8-8.69-12-11s-5.36-3-6.15-3.4a32.13,32.13,0,0,0-13.78-3.41h-.73c-1.71-.09-3.47-.23-5.26-.43a12,12,0,0,0,1.45-6.15c-.23-6.78-3.18-13.2-8.77-19.07-4.54-4.77-8.81-8.09-13-10.15-3.11-1.51-5.31-2.51-6.72-3.06a32.9,32.9,0,0,0-11.88-2.38Z"/><path class="cls-2" d="M158,160.36a133.52,133.52,0,0,0,24.14-13.06c7.85-5.3,13.38-10.72,16.49-16.39,3.39-7.34,5.08-13.6,4.9-18.82a84.42,84.42,0,0,0-1.06-12,35.79,35.79,0,0,0-3.27-9.66c-1.06-2-3.27-4.65-6.69-7.94a45.58,45.58,0,0,0-12.74-8.44A26.57,26.57,0,0,0,163,72.45c-14.76,3-30.72,9.65-47.19,20a244.75,244.75,0,0,0-45.21,36.63A226.16,226.16,0,0,0,38,170.94a164.1,164.1,0,0,0-18.51,43.12C16,228,15.4,238.32,17.21,245.13s3.49,11.49,4.92,14.05c3.63,6.54,9.22,11.68,16.58,15.57,10.71.37,20.17.42,28.49,0,9.92-.56,16.51-.12,19.84,1.05s5.36,2.59,6.09,4.22c2.2,4.74-2.24,18.55-10.72,41.57-3.89,10.81-8.09,18.33-13,22.64q-2.82-.56-4.83-4.15c-2.41-4.45-2.06-20.37,4.15-48,1.06-4.66,1.85-7.28,2.26-7.87a33.92,33.92,0,0,0-18,3c-13.21,5.93-23.34,17.48-29.32,34.08a48,48,0,0,0,1.74,24.54c2.63,7.32,4.95,12.44,6.87,15.38,2.76,4.23,5.87,7.12,9.29,8.71l1.87.77c7.93,3.15,15.32,3.68,22.36,1.62q2.78-1.08,5.54-2.45a77,77,0,0,0,11.13-6.75c5.47-4,9.18-7,11.07-9.06A176.65,176.65,0,0,0,128.57,293c3.39-10.55,4.26-18.68,2.1-24.4-2.37-6.32-7.47-10.67-15.47-12.83a99.29,99.29,0,0,0-21.65-3.15c-4.54-.34-8.62-.73-12.22-1.22s-6.22-1.41-7.83-2.8A37.45,37.45,0,0,1,66,238a30.19,30.19,0,0,1-2.8-11.79c-.29-8.37,1.65-17.43,6.05-27.1a212.72,212.72,0,0,1,16.65-29.75,156.19,156.19,0,0,1,23.79-27.9,128.75,128.75,0,0,1,22.62-16.85c6.88-3.88,12.36-6.25,16.34-7.18A117.44,117.44,0,0,1,145.47,142,153.66,153.66,0,0,1,138.42,165a26.45,26.45,0,0,0,9.15-.9A68.87,68.87,0,0,0,158,160.36Z"/><path class="cls-2" d="M645.63,280.33A409.61,409.61,0,0,1,708,255.43c.23-3.73-1.21-7.57-4.35-11.48s-6-6.64-8.67-8.18-4.37-2.5-5.24-2.91a19.42,19.42,0,0,0-9.38-2.22,109.51,109.51,0,0,1-14-1.57c-4.81-.84-8.68-1.64-11.63-2.43a57.6,57.6,0,0,1-6-1.85c-1.3-.54-1.75-1.24-1.33-2.09.86-1.78,4-4.08,9.67-6.83,3-1.5,5.51-2.63,7.52-3.41-.13-3.75-1.94-7.5-5.47-11.2a36,36,0,0,0-9.6-7.64q-4.29-2.07-5.82-2.66a19.27,19.27,0,0,0-9.35-1.46,151.32,151.32,0,0,0-26.86,14c-8.24,5.43-13.77,10.39-16.81,14.72-.87,2.2,4.33,7.26,15.12,15.56Q594.93,239,585,243.07c-15.58,7.4-33.94,13.73-54.7,19.72,5.33-4.17,11.33-9.25,18.08-15.19a143.09,143.09,0,0,0,17-17.3c4.54-5.61,7.65-10.6,9.26-15a30.14,30.14,0,0,0,1.6-6.42c-.14-6.32-3.66-12-10.63-16.89s-13.66-8.12-19.91-9.74c-8.38-2.16-22,.3-39.77,8.11a199.94,199.94,0,0,0-40.65,23.71c-13.55,9.61-29.85,18.66-48.5,27.76,4.41-5,9.31-11.06,14.78-18.2a149.72,149.72,0,0,0,13.32-20.1c3.36-6.27,5.45-11.65,6.16-16.16a26.94,26.94,0,0,0,.3-6.17c-.45-1.56-2.92-4.12-7.51-7.61a103.83,103.83,0,0,0-14.24-9.09c-4.89-2.58-8.53-3.94-10.84-4.16l-1.41,0a119.41,119.41,0,0,0-30.54,13.24,270.9,270.9,0,0,0-29,20.25q-6.37,4.86-12.54,9.83c19.89-31.37,47.8-61.91,85.7-89.32a6.86,6.86,0,0,1,4.61-.79,18.11,18.11,0,0,1,6.86,2.29c0-.66-.07-1.32-.11-2a21.75,21.75,0,0,0-1.49-4.59,19.08,19.08,0,0,0-3.87-5.55,41.55,41.55,0,0,0-14.5-8.27,58.18,58.18,0,0,0-13.47-3,23.37,23.37,0,0,0-4.62.1c-3,.75-10.8,6.42-22.69,17.37-27.13,25.14-53.76,56.8-77.24,95h0c-6.66,7.75-14.18,15.73-22.42,24.05s-15.3,15.48-21.43,21.41-9.62,9.13-10.79,9.48c-.9,0-1.46-.54-1.66-1.74-.29-1.74.18-4.92,1.5-9.53,2.37-7.76,7.49-18,16-30.47a15.14,15.14,0,0,0-4.3-4.29A57.67,57.67,0,0,0,269,199c-2.29-9.86-10-18-23.66-24-12.64-6-23.32-8.26-31.49-6.88-7.81,1.33-18.43,8.9-30.68,23-16.43,18.93-27.91,39.16-34.88,60-7.55,22.75-8.24,39.63-4.16,50.6.68,1.85,3.46,3.57,8.23,5.23A100.67,100.67,0,0,0,166,310.79c4.32.84,7.41,1,9.33.49a2.82,2.82,0,0,0,1.15-.61c.33-.27,3.3-4.88,9.39-13.71s13.67-19.37,23.1-31.5c-1.7,8.06-1.81,14.68-.53,19.85.38,1.55,2.87,3.35,7.38,5.48a94,94,0,0,0,13.07,5.09c4.2,1.26,7.25,1.75,9.21,1.42a2.52,2.52,0,0,0,1.08-.4c.26-.18,2.85-3.36,8-9.44s11.82-13.71,20.23-22.77q6.51-7,13.42-14.12c-4.77,11.94-6.5,20.18-6.05,24.53.48,1.45,2.78,3.4,6.84,5.89a87.32,87.32,0,0,0,12.1,6.27c4,1.68,7,2.47,8.95,2.34a5,5,0,0,0,1.25-.23c1.78-1.6,4.55-8.27,8.74-19.95q1.65-4.34,3.35-8.68a67.41,67.41,0,0,0,20.17,19.84c7.87,4.95,14.61,7.51,20.55,7.61,4.24.07,9.92-2.51,17.33-7.6a237.07,237.07,0,0,0,19.2-15.14A189.74,189.74,0,0,0,428.61,252c-5.61,8.56-8.66,16.21-9.52,22.78-.19,1.48,1.48,3.79,4.92,7a109.45,109.45,0,0,0,11.12,9c4,2.81,6.8,4.37,8.58,4.64a81.71,81.71,0,0,0,29.56-.63c9.53-2,19.52-6.27,30.26-12.72,14.23-.91,30.49-4.81,49.63-11.26,16.89-5.67,31.09-10.41,42.14-14.81Q610,250,625.48,243.09c4.38.73,9.86,1.52,16.48,2.46a307,307,0,0,0-49,27.24c-19.21,13.37-29.81,24.93-33.3,33.63-.49,1.22.58,3.86,3.12,7.92a77.71,77.71,0,0,0,8.11,10.93c2.89,3.23,5.19,5.19,7,5.88a3.25,3.25,0,0,0,1.23.25c.37,0,4.5-1.32,12.57-3.75s18.35-5.37,31-8.58,25.88-6.25,39.58-9.06,25.94-5.14,36.5-7.23c.46-1.91-.17-4.48-1.93-7.7a15.8,15.8,0,0,0-6.23-6.69c-10.48,2.95-21.82,5.69-33.93,8.36s-22.51,5-31.39,6.75-13.78,2.65-14.9,2.38q-1.35-.7-.54-2.37C611.83,299.66,623.2,291.46,645.63,280.33ZM231.05,212.69c-5.76,8.36-12.36,17.06-19.64,26.15s-13.52,16.93-19,23.44-8.53,10-9.56,10.48c-1,.15-1.68-.36-2-1.53-.52-1.79-.35-5,.57-9.67,1.48-7.95,5.38-18.62,12.36-31.86a116,116,0,0,1,13.69-20.18c4.63-5.14,7.68-7.8,9-8,2.08-.36,4.56.16,7.43,1.58a48.14,48.14,0,0,1,11.22,7.29A13.15,13.15,0,0,0,231.05,212.69ZM353,254.78l-1.5.12c-2.29,0-4.92-1.37-8-4.06A58.08,58.08,0,0,1,333,238.54l.75-.71q13.22,5.76,27.77,10.52C356.78,252.34,354,254.51,353,254.78Zm44.82-62.08c-.18,2.22-1.34,5.64-3.43,10.27-3.89,8.24-10.19,18-18.43,29.36-1.22,1.62-2.43,3.16-3.62,4.6-11.27-3.76-20.7-7-28.12-9.82a245.84,245.84,0,0,1,22.05-18.37C374,203,380.77,198.47,386.51,195s9.06-5.24,9.85-5.29C397.45,189.92,397.93,190.94,397.79,192.7Zm65.93,80.57c-1.35-.33-1.86-1.27-1.55-2.83.56-2.74,3.47-7,8.93-12.62q6.48,3.9,13.26,7.42C474.78,271.1,468,273.85,463.72,273.27Zm60.66-38.21A273.5,273.5,0,0,1,498,256.11c-6-3-11.5-5.84-16.38-8.7,15.32-13.65,30.15-23.33,43.78-29.23,6.41-2.75,10.44-3.87,11.95-3.48a9.34,9.34,0,0,1,2.47,1.08C537.72,221.34,532.48,227.7,524.38,235.06Z"/><path class="cls-2" d="M521.16,342.6a7.77,7.77,0,0,0-4.36-1.76A154,154,0,0,1,504,354.25q-7.25,6.78-12.94,11.39c-3.8,3.07-6,4.67-6.71,4.78-.5-.06-.75-.45-.75-1.18a17.21,17.21,0,0,1,1.68-5.53q2.93-6.61,10.8-16.92a8.9,8.9,0,0,0-1.92-2.85,33.58,33.58,0,0,0,4.86-8.3q-.84-9-10.06-15.92-8.46-6.86-14.41-6.87-5.7,0-16.92,10.06a149.7,149.7,0,0,0-17.33,18.29,150.82,150.82,0,0,1-12.46,13.05q-7.25,6.78-12.95,11.39c-3.8,3.07-6,4.67-6.7,4.78a1,1,0,0,1-1-1.18q0-3.25,7.46-14.83,4.36-6.78,9.22-13.57a22.68,22.68,0,0,0,3-8,46.35,46.35,0,0,0,.38-5.07,21.08,21.08,0,0,0-.5-4.69q-.42-1.35-3.48-3.94a44.55,44.55,0,0,0-6.2-4.44q-3.14-1.84-4.73-1.85l-.59.09q-8.62,4-19,14.41T370.84,351l-6,6.7a281.91,281.91,0,0,1,26.81-38.79A9.91,9.91,0,0,0,387,314a15.41,15.41,0,0,0-5.44-2.06c-1.4-.13-2.32-.21-2.77-.21a7.46,7.46,0,0,0-4.36,1.18q-7.71,9.56-20.36,27.9-20,29-21.45,40.55c.12.9,1.26,2.21,3.44,3.94a42.62,42.62,0,0,0,6.7,4.4,12.74,12.74,0,0,0,5.2,1.8l.75-.08c0-.06,0-.09.08-.09a257.73,257.73,0,0,1,16-20.61q11.22-13.39,22.37-25.22t15.58-14.07H403c.67,0,1,.83,1,2.51s-.75,4.08-2.26,6.87a178.88,178.88,0,0,0-14.5,24.47q-4.86,10.38-4.86,16.08c0,.79,1.13,2.07,3.4,3.86a44.77,44.77,0,0,0,6.78,4.48,12.53,12.53,0,0,0,5.16,1.8,1.58,1.58,0,0,0,.67-.12c.16-.09,2-1.69,5.65-4.82s8.1-7.1,13.49-11.9q2.76-2.46,5.54-5a31.94,31.94,0,0,0-2.4,11.09c0,1.17,1.14,2.65,3.4,4.44a46,46,0,0,0,6.74,4.48,12.28,12.28,0,0,0,5.11,1.8,1.58,1.58,0,0,0,.76-.17q.33-.17,7.58-6.49t17.22-15.29q-2.94,6.78-2.93,11.56,0,1.42,3.39,4.11a44.35,44.35,0,0,0,6.79,4.48,12.5,12.5,0,0,0,5.15,1.8,1.58,1.58,0,0,0,.67-.12c.17-.09,2.05-1.69,5.66-4.82s8.1-7.1,13.49-11.9,10.83-9.76,16.33-14.87,10.19-9.71,14-13.79A7.29,7.29,0,0,0,521.16,342.6Zm-42.32-1.76a152.34,152.34,0,0,1-12.77,13.41q-7.26,6.78-12.95,11.39c-3.8,3.07-6,4.67-6.62,4.78-.56-.06-.84-.45-.84-1.18a16,16,0,0,1,1.76-5.53q2.94-6.61,10.73-16.92a82.17,82.17,0,0,1,9.21-10.22c2.85-2.52,4.61-3.77,5.28-3.77a5.6,5.6,0,0,1,3.52,1.67,27.71,27.71,0,0,1,4.95,5.36A6.58,6.58,0,0,0,478.84,340.84Z"/><path d="M211.75,44.69q1.11,6.78,2.34,13.51l-3.4,1.25q-3.09-16.17-5.4-32.63,7.59-2.7,15.19-5.13c4.62-1.47,8.29-1.66,11-.63a6.49,6.49,0,0,1,4.43,5.87,10.23,10.23,0,0,1-3,8.08c-2.26,2.48-5.58,4.4-10,5.86Q217.33,42.7,211.75,44.69Zm-.36-2.28q5.58-2,11.18-3.83c3.51-1.15,6.06-2.65,7.66-4.57a7.81,7.81,0,0,0,2.08-6,5.11,5.11,0,0,0-3.23-4.45c-1.94-.86-4.72-.73-8.34.43q-5.76,1.84-11.51,3.85Q210.24,35.16,211.39,42.41Z"/><path d="M250.79,46.63c-1.13.31-2.27.61-3.4.93q-1.86-16.31-2.95-32.82l3.63-.93Q249,30.31,250.79,46.63Z"/><path d="M263.49,41.14q12.7-3,25.33-5.12l.06,2.27q-14.58,2.51-29.25,6.08l-.18-2.06q11-17.13,23.89-33.66-12.43,2.14-24.94,5l-.09-2.31Q273.05,8,287.74,5.62l0,2Q274.63,24,263.49,41.14Z"/><path d="M298.16,34.53q12.6-1.86,25.08-3c0,.76-.07,1.51-.1,2.27q-14.4,1.26-29,3.57c0-.69,0-1.38,0-2.07Q306,19.27,319.79,3.9,307.49,5,295.08,6.79c0-.77.05-1.53.07-2.3q14.64-2.12,29.15-3.24c-.05.65-.11,1.3-.16,2Q310.21,18.47,298.16,34.53Z"/><path d="M353.23,23.27q-8.93.14-17.93.65-2.43,4.65-4.72,9.34l-3.44.25Q335.38,16.65,345.32.09L348.65,0q5.61,16.08,11,32.23l-3.38,0C355.23,29.25,354.24,26.26,353.23,23.27Zm-16.66-1.81q7.95-.42,15.85-.56-2.88-8.52-5.82-17h-.18Q341.26,12.61,336.57,21.46Z"/><path d="M403.26,18.83q-9-.93-18-1.48Q384,24,382.83,30.64q10.2.57,20.25,1.64c-.16.74-.32,1.47-.47,2.21Q391,33.26,379.23,32.7q2.56-16.05,5.91-32.08,12.53.74,24.84,2.16c-.2.74-.39,1.48-.58,2.22q-10.56-1.21-21.29-1.92-1.28,6-2.45,12,9.12.56,18.11,1.5Z"/><path d="M447,25.72q-8.61-1.83-17.37-3.3-1.87,6.46-3.63,13,9.84,1.62,19.49,3.7l-.67,2.14q-11.13-2.38-22.51-4.17,4-15.69,8.87-31.29,12.11,2,23.95,4.66l-.78,2.15q-10.15-2.28-20.52-4.07-1.83,5.85-3.56,11.72,8.81,1.48,17.45,3.33Z"/><path d="M474.63,40.68a4.3,4.3,0,0,0-.72-4.47c-1.1-1.44-3.29-3.12-6.6-5a29,29,0,0,1-8-5.68,5.79,5.79,0,0,1-1.21-6.21c.85-2.34,2.78-4,5.8-4.87a18.52,18.52,0,0,1,10.18.18c3.95,1.08,6.76,2.84,8.4,5.2a7,7,0,0,1,.68,7.35l-.11.11c-1-.3-1.92-.58-2.89-.87a5.63,5.63,0,0,0-.64-5.71,10.79,10.79,0,0,0-6.31-4,13.79,13.79,0,0,0-7.77-.18,6,6,0,0,0-4.14,3.48,4.16,4.16,0,0,0,.88,4.39c1.16,1.38,3.5,3,7,4.87a24.74,24.74,0,0,1,7.63,6,6,6,0,0,1,.87,6.26,7.85,7.85,0,0,1-5.76,4.62,21,21,0,0,1-18.26-4.94A6.73,6.73,0,0,1,452,33.55l.09-.11,2.86.66a5.37,5.37,0,0,0,1.41,6.07A14.84,14.84,0,0,0,463,43.75a14.42,14.42,0,0,0,7.38.27A5.72,5.72,0,0,0,474.63,40.68Z"/><path d="M507.41,44q-8.18-3.1-16.54-5.89-3.11,6.93-6,13.91l-2.91-.94Q488.08,36.16,495,21.41q11.6,3.82,22.85,8.25c-.36.67-.72,1.34-1.07,2q-9.69-3.81-19.64-7.16-2.73,5.74-5.33,11.53,8.4,2.79,16.62,5.93Z"/><path d="M512.3,62.21l-2.79-1.14q7.17-14.46,15.07-28.69l3,1.26Q519.59,47.8,512.3,62.21Z"/><path d="M545.4,77.81c-.87-.47-1.75-.93-2.62-1.38q3.87-6.34,7.89-12.61-9.39-4.92-19.1-9.38-3.71,6.47-7.26,13l-2.73-1.23Q529.2,52,537.53,38l2.94,1.34q-4,6.52-7.77,13.12,9.76,4.48,19.2,9.45,4.13-6.39,8.41-12.71l2.82,1.51Q553.91,64.1,545.4,77.81Z"/><path d="M575.18,84.75q-6.73-4.27-13.69-8.29-4.14,2.81-8.17,5.68l-2.67-1.49Q565.13,70.27,581,61l2.55,1.56q-4,16.55-8.21,33l-2.53-1.65ZM563.67,75q6.14,3.57,12.1,7.34,2.19-8.73,4.3-17.47l-.13-.08Q571.6,69.71,563.67,75Z"/><path d="M591.37,88.82q-4.62,5.66-9.11,11.39l-2.4-1.64q9.82-12.76,20.33-25.14,5.25,3.61,10.37,7.39c3.3,2.42,5.27,4.89,5.94,7.32s0,4.71-2,6.85A7.68,7.68,0,0,1,610,97.34a10.9,10.9,0,0,1-5.76-.68,7.26,7.26,0,0,1,2.07,5,7.41,7.41,0,0,1-2.09,4.53l-2,2.27a8.88,8.88,0,0,0-1.48,2.27,3.85,3.85,0,0,0-.27,2.25l-.36.4-2.32-1.8a4,4,0,0,1,.47-2.46,11.61,11.61,0,0,1,1.67-2.48l1.94-2.22a5.25,5.25,0,0,0,1.4-4.82,8.69,8.69,0,0,0-3.71-4.91Q595.51,91.69,591.37,88.82Zm1.44-1.76q3.66,2.55,7.23,5.15c2.68,2,5,3,7,3a6.32,6.32,0,0,0,5-2.12,5.23,5.23,0,0,0,1.5-5c-.46-1.79-2-3.66-4.55-5.55s-5.13-3.73-7.74-5.55Q597,82,592.81,87.06Z"/><path d="M608.58,120.2c-.73-.62-1.48-1.23-2.22-1.84Q617.25,106.48,628.8,95l2.4,2Q619.58,108.39,608.58,120.2Z"/><path d="M636.23,133.05q-5.58-5.45-11.39-10.67-4.56,2-9,4l-2.24-1.95q16-7.43,33.31-13.44l2.13,2q-7.29,15.39-14.9,30.62L632,141.54Zm-9-11.7q5.13,4.64,10.07,9.44,4-8.08,7.84-16.21l-.11-.11Q636,117.71,627.24,121.35Z"/><path class="cls-2" d="M226.53,429.78C242.36,391.15,267,355,301.14,323.43a8.92,8.92,0,0,1,5-1.59,22.69,22.69,0,0,1,8,.94c-.17-.6-.35-1.2-.52-1.8a15.87,15.87,0,0,0-2.34-4.39,17.25,17.25,0,0,0-5.59-4.77,48.36,48.36,0,0,0-16.31-5.59,57,57,0,0,0-13.82-.64,33.42,33.42,0,0,0-5.21.94c-2.64,1-8.45,6.11-16.79,15.66A309.29,309.29,0,0,0,196,372.29a390.35,390.35,0,0,0-42.36,56.92q-9.81,15.6-18.15,31.48c-4.36-15.31-11.61-43.42-19.52-84.9.83-1.53,1.68-3.05,2.54-4.58a6.2,6.2,0,0,1,3.57-2.38,18.2,18.2,0,0,1,7-.82l-1-1.51a16.43,16.43,0,0,0-3.2-3.11A19,19,0,0,0,119,360.5a45.64,45.64,0,0,0-16.8-.75,65.71,65.71,0,0,0-13.59,3.06,24.81,24.81,0,0,0-4.08,1.94c-4.15,4-17.86,33.66-27.5,88.62-12.42,79.26-2.51,121.72,3.5,130.87,1.47,1.27,7.14,1.16,16.9.14,8.08-.8,12.5-1.31,13.35-1.86.15-.09.19-.17.14-.24.41-.86.44-2.53.11-5a414,414,0,0,1-6.3-75.33,283.62,283.62,0,0,1,11.67-78.27c10.45,57.32,19.38,86.21,20.44,88.53,2.18,3.81,7,7.43,14.31,11.06s11.35,5.31,12.41,4.85c.58-.25,1.46-4.71,3-13.4a179.18,179.18,0,0,1,7.57-29.19,299.13,299.13,0,0,1,49.13-86.33c-27.65,56.3-33.62,100.34-32.61,130,.47,11,2.24,19.35,4.91,25l1.18,2.21c1,1.21,3.82,2.51,8.32,4a93.75,93.75,0,0,0,12.9,3.29c4.11.73,7,.83,8.7.25a3.18,3.18,0,0,0,1.73-1.37c2.9-3.93,4.19-6.5,3.71-7.73a.56.56,0,0,1,0-.12,30.88,30.88,0,0,1-2.46-5.06c-2.7-7-4.19-16.6-4-28.76C206.14,500,211,469.45,226.53,429.78Z"/><path class="cls-2" d="M699,535a13.15,13.15,0,0,0-4.62-6.37c-9.58,1.72-19.9,3.18-30.91,4.52s-20.44,2.57-28.43,3.45-12.42,1.28-13.48.91c-.67-.45-.71-1.14-.13-2.07.84-1.36,3.11-3.3,6.86-5.8,6.41-4.13,16.31-8.52,30.1-12.63a11.89,11.89,0,0,0-.45-5.23,61.74,61.74,0,0,0,14.62-6.12c4.46-8,4-17.71-2.16-29-5.34-10.8-11.69-17.86-18.45-21.12-6.46-3.11-18.86-3.34-36.36.21a189.63,189.63,0,0,0-41,13.16,229.51,229.51,0,0,1-38.77,11.29c-13.63,2.75-24,4.52-31.49,4.85.38-1.69.76-3.37,1.13-5.06a223.15,223.15,0,0,1,5.65-22.62q1.53-5,3.33-9.74,3.76-8.61,9.09-12.94c3.56-2.88,6.78-4,9.57-3.2a8.59,8.59,0,0,1,1.87.75,21.17,21.17,0,0,1-1.19,5.32,51.16,51.16,0,0,1-6.23,11.65,84.37,84.37,0,0,1-15.15,16.62,17.92,17.92,0,0,0,6.44,2.94c6.28,1.66,13.08,1.62,20.62-.09a30.31,30.31,0,0,0,14.26-7.27c6-5.65,10.28-11.31,12.68-17.07a30.56,30.56,0,0,0,1.82-6c.18-5.52-2.95-10.63-9.53-15.17a61.22,61.22,0,0,0-18.62-9.08c-5.47-1.46-13.84-1.66-24.84-.3a55,55,0,0,0-23.6,8.33c-4.8,3.33-8.66,10.24-11.65,20.68a213.85,213.85,0,0,1-26.53,13.51c.09-.33.18-.67.26-1,.19-1-.06-1.5-.72-1.59-2-.3-5,1.79-9,6.28l-.12.15-.28.11c-12.86,4.83-22.68,8.19-30,9.68.05-1.71.09-3.43.13-5.14a219.53,219.53,0,0,1,1.12-23.09c.35-3.41.8-6.76,1.35-10.07,1.33-6,3.44-10.73,6.37-14.11s5.87-4.93,8.77-4.63a9.29,9.29,0,0,1,2,.45,20.73,20.73,0,0,1-.11,5.41,48.92,48.92,0,0,1-3.81,12.39,79,79,0,0,1-11.62,18.66,18.31,18.31,0,0,0,6.9,1.88,42.15,42.15,0,0,0,20.24-3.3,28.76,28.76,0,0,0,12.59-9.37c4.77-6.47,7.87-12.68,9.09-18.7a29.54,29.54,0,0,0,.61-6.12c-.92-5.43-5-9.95-12.37-13.38a64.67,64.67,0,0,0-20.13-6c-5.67-.59-13.93.51-24.47,3.54a52,52,0,0,0-21.53,11.81c-4.05,4-6.46,11.39-7.33,22.11-6.78,6.24-14.34,12.64-22.53,19.28l-1,.86c.07-1.26.14-2.52.22-3.78,0-1-.36-1.46-1-1.46-2,0-4.6,2.54-7.58,7.57a33.2,33.2,0,0,0-3.27,7.14q-4.53,3.69-8.48,6.81c-6,4.74-9.41,7.29-10.5,7.52-.82,0-1.27-.58-1.36-1.63-.13-1.54.55-4.28,2.11-8.21,2.75-6.6,8.19-15.16,17-25.44a12.91,12.91,0,0,0-3.56-4,51.45,51.45,0,0,0,8.22-12.32c-1.26-8.75-7.63-16.42-19.68-22.54-11.11-6.16-20.77-8.79-28.37-8.12-7.27.64-17.6,6.56-29.74,18.1-16.29,15.5-27.92,32.52-35.43,50.39-8.12,19.46-9.64,34.21-6.64,44,.51,1.65,2.87,3.3,7,5a89.39,89.39,0,0,0,11.88,4c3.78,1,6.52,1.32,8.26,1a2.57,2.57,0,0,0,1.06-.47c.31-.22,3.23-4.08,9.24-11.43s13.49-16.1,22.83-26.1c-2.1,6.94-2.66,12.71-1.88,17.3.24,1.37,2.34,3.1,6.23,5.24a84.07,84.07,0,0,0,11.31,5.28c3.67,1.38,6.36,2,8.14,1.84a2.28,2.28,0,0,0,1-.28c.25-.14,2.79-2.74,7.9-7.7s11.67-11.15,20-18.46l2.44-2.11c1.55,9.7,6.16,16.58,13.59,20.82a43.86,43.86,0,0,0,21,5.61,47.48,47.48,0,0,0,14.09-1.65A28.3,28.3,0,0,0,405.65,498a23.39,23.39,0,0,0,6.81-12.5,181.1,181.1,0,0,0,23-6.85c-1.88,12.41,1.24,21.61,8.87,27.86a42.5,42.5,0,0,0,19.58,8.82,47.51,47.51,0,0,0,14.22.59A29.32,29.32,0,0,0,491,511.43a24.6,24.6,0,0,0,9.15-11.26,199.39,199.39,0,0,0,34.7-5.47c-7.1,6.65-11.52,12.92-13.6,18.57-.6,1.63.36,4.19,2.77,7.7a76.48,76.48,0,0,0,7.43,9.36c2.56,2.73,4.65,4.4,6.32,5a2.67,2.67,0,0,0,1.17.15c.4,0,5.2-1.77,14.76-4.86S574.94,524,589,520.39c-6.06,4.73-10.09,9.27-12.27,13.5-.65,1.27,0,3.78,2,7.55A73.86,73.86,0,0,0,585,551.65c2.24,3,4.13,4.94,5.72,5.71a2.27,2.27,0,0,0,1,.28c.3,0,4-.85,11.37-2.38s16.67-3.34,28.16-5.17,23.44-3.44,35.83-4.77S690.43,543,699.87,542C700.49,540.32,700.23,538,699,535ZM314,433.94c-5.89,6.9-12.52,14.06-19.76,21.53s-13.4,13.92-18.74,19.27-8.33,8.25-9.29,8.57c-.91.08-1.48-.41-1.71-1.45-.35-1.6,0-4.4,1.14-8.41,1.85-6.86,6.06-15.94,13.29-27.07a100.75,100.75,0,0,1,13.86-16.75c4.58-4.19,7.56-6.3,8.77-6.42a11.55,11.55,0,0,1,6.65,1.87,42.81,42.81,0,0,1,9.67,7.1A12.23,12.23,0,0,0,314,433.94Zm61.67,46.74c-8.74-.19-14.2-4.36-16.56-12.78l.64-.52a196.77,196.77,0,0,0,20,11.69A5.43,5.43,0,0,1,375.63,480.68Zm8.61-15.27a103.38,103.38,0,0,1-15.62-5.21l.56-.45q7.51-5.91,14.13-11a121.57,121.57,0,0,1,1.05,13.76Zm80.53,24.23c-9-1.62-13.58-7-13.92-16.35a190.45,190.45,0,0,0,18.27,15.41A5.61,5.61,0,0,1,464.77,489.64Zm12.16-16.58-.69,2.87a97.19,97.19,0,0,1-15.09-8l-.31-.21c6.49-3.05,12.43-5.86,17.77-8.5A124.45,124.45,0,0,1,476.93,473.06Zm102.18,36.77c-7.8,1.78-12.1,2.68-13.1,2.47-.81-.4-1-1.09-.53-2.08.71-1.51,2.75-3.66,6.19-6.44,5.82-4.78,15-10.23,28.07-15.87a119.89,119.89,0,0,1,22.14-7c6.48-1.19,10.31-1.45,11.4-.94a9.91,9.91,0,0,1,4.37,4.92,36.61,36.61,0,0,1,3.59,10.85,12.92,12.92,0,0,0-4.35-.5c-9.28,2.79-19.33,5.4-30.06,8S586.91,508.07,579.11,509.83Z"/></g></g></svg>